<svg width="119" height="30" viewBox="0 0 119 30" fill="none" xmlns="http://www.w3.org/2000/svg">
<g clip-path="url(#clip0_75_10197)">
<path d="M3.81632 0.501962H115.174C115.611 0.500968 116.044 0.587237 116.448 0.755828C116.852 0.924419 117.219 1.17202 117.529 1.48444C117.838 1.79685 118.083 2.16795 118.251 2.57646C118.418 2.98498 118.504 3.42288 118.504 3.86507V26.1877C118.503 27.079 118.153 27.9336 117.53 28.5639C116.907 29.1941 116.063 29.5484 115.182 29.5489H3.82379C2.94287 29.5484 2.09818 29.1941 1.47527 28.5639C0.852367 27.9336 0.502203 27.079 0.501709 26.1877V3.86507C0.501709 2.97362 0.851714 2.11868 1.47473 1.48833C2.09774 0.857979 2.94272 0.503851 3.82379 0.503851L3.81632 0.501962Z" fill="#00377C"/>
<path d="M0.494237 3.86512V26.1877C0.494731 27.079 0.844895 27.9337 1.4678 28.5639C2.0907 29.1942 2.9354 29.5484 3.81632 29.5489H39.6654C42.5926 25.3282 44.2326 20.3318 44.3825 15.1779C44.5323 10.0239 43.1854 4.93858 40.5085 0.551077H3.81632C3.38139 0.541468 2.94899 0.620273 2.5447 0.782821C2.14042 0.945369 1.77249 1.18835 1.46271 1.49738C1.15293 1.80641 0.907585 2.17521 0.741231 2.58192C0.574877 2.98862 0.490889 3.42497 0.494237 3.86512Z" fill="#00377C"/>
<path d="M8.92367 7.62471C9.18432 7.28988 9.55371 7.05921 9.96637 6.9736H10.4607V9.03072H13.585V9.97435C13.585 10.4764 13.1877 11.0784 12.2458 11.0784H10.511V14.6397C10.511 15.8438 11.0072 16.2948 11.8988 16.2948C12.467 16.3549 13.0395 16.2321 13.5347 15.9438H13.6354V16.7459C13.6354 17.6499 12.99 18.2557 11.6507 18.2557C9.37134 18.2557 8.28014 17.0006 8.28014 14.8435V9.33834C8.26322 9.02535 8.3118 8.71226 8.42269 8.41956C8.53359 8.12687 8.7043 7.86115 8.92367 7.6398V7.62471ZM17.9983 18.3255C16.2617 18.3255 15.2713 17.3234 15.2713 15.4663V9.28173H15.9148C16.9071 9.28173 17.5021 9.83281 17.5021 10.9803V15.2455C17.5021 16.1476 17.8995 16.4496 18.8899 16.4496H19.3376V16.9516C19.3376 17.9537 18.9403 18.3048 17.9983 18.3048V18.3255ZM16.3625 8.42302C16.1889 8.42289 16.0172 8.38737 15.8576 8.31858C15.698 8.24978 15.5537 8.14913 15.4334 8.02264C15.3131 7.89615 15.2192 7.74641 15.1573 7.58238C15.0955 7.41835 15.067 7.24339 15.0735 7.06796C15.0723 6.89635 15.1048 6.72621 15.1691 6.56742C15.2335 6.40863 15.3283 6.26437 15.4483 6.14302C15.5682 6.02168 15.7108 5.92567 15.8677 5.86057C16.0247 5.79548 16.1928 5.7626 16.3625 5.76386C16.7075 5.76824 17.038 5.90556 17.2865 6.14787C17.535 6.39017 17.6828 6.71922 17.6999 7.06796C17.7006 7.24596 17.6665 7.42235 17.5996 7.58697C17.5327 7.75158 17.4342 7.90118 17.3099 8.02713C17.1856 8.15308 17.0379 8.25291 16.8753 8.32085C16.7127 8.3888 16.5384 8.42352 16.3625 8.42302ZM29.4027 13.8414C29.4027 16.2495 30.9882 18.4557 33.6668 18.4557C36.5915 18.4557 38.1285 16.2495 38.1285 13.5394C38.1285 11.1312 36.543 8.92503 33.8645 8.92503C30.9882 8.87408 29.4027 11.0822 29.4027 13.8414ZM35.8473 13.8414C35.8473 15.3512 35.2038 16.3986 33.9148 16.3986C32.4226 16.3986 31.7828 15.2946 31.7828 13.4903C31.7828 11.9805 32.4263 10.8802 33.7153 10.8802C35.2075 10.8802 35.8473 11.9843 35.8473 13.8414ZM29.841 6.92264C29.8882 6.59078 29.9883 6.26889 30.1376 5.96957C30.6338 5.21466 32.1223 4.21442 33.8085 4.21442C34.5219 4.19633 35.2302 4.3394 35.882 4.63323C36.5338 4.92705 37.1127 5.36424 37.5764 5.91296C37.7864 6.22462 37.9065 6.58925 37.9234 6.96605V7.90968H37.873C37.4151 7.29816 36.8227 6.80293 36.1428 6.46323C35.4629 6.12353 34.7142 5.9487 33.9559 5.95259C33.1697 5.92918 32.3889 6.09068 31.6749 6.42439C30.9609 6.7581 30.3331 7.2549 29.841 7.87571H29.7907V6.92264H29.841ZM34.7001 21.2659C34.6509 21.8239 34.4997 22.3678 34.2543 22.8701C33.5604 24.176 31.2288 25.8312 28.7014 25.8312C27.5953 25.844 26.5019 25.5916 25.5108 25.0947C24.5196 24.5977 23.659 23.8703 22.9992 22.972C22.6851 22.4369 22.498 21.8355 22.4526 21.2149V20.0618H22.503C23.7919 21.817 25.674 23.2701 28.3544 23.2701C29.5712 23.3095 30.7779 23.0358 31.8617 22.4747C32.9454 21.9135 33.8707 21.0833 34.5509 20.0618H34.6013V21.2659H34.7001ZM27.1644 13.7904H25.9743L26.0228 13.9905C26.1239 14.4176 26.174 14.8554 26.172 15.2946V16.0495C26.172 16.4005 26.0732 16.7515 25.1797 16.7515C23.8908 16.7515 22.3034 16.2004 22.3034 13.6923C22.3097 12.9621 22.5993 12.2638 23.1098 11.7477C23.6203 11.2315 24.3107 10.939 25.0323 10.9331H25.1797C26.1148 10.8782 27.0408 11.1441 27.8079 11.688L27.8582 11.7371H28.1623V10.935C28.1623 9.98191 27.3192 8.97788 25.4352 8.97788C22.212 8.97788 19.9811 11.035 19.9811 13.9942C19.9811 17.1554 22.4601 18.7615 24.9391 18.7615C27.2203 18.7615 28.3115 17.9575 28.3115 16.308V14.8492C28.2723 14.5669 28.1371 14.3072 27.929 14.115C27.721 13.9228 27.4532 13.81 27.1718 13.7961" fill="white"/>
<path d="M115.182 0.00022666H3.82383C3.32029 -0.0053153 2.82072 0.0908221 2.35435 0.283006C1.88798 0.475189 1.46418 0.75956 1.10776 1.11948C0.751335 1.4794 0.469455 1.90763 0.2786 2.37912C0.0877445 2.8506 -0.0082503 3.35587 -0.00375539 3.86535V26.1351C-0.00797891 26.6435 0.087838 27.1476 0.27811 27.6181C0.468383 28.0886 0.749309 28.5161 1.10451 28.8757C1.45972 29.2352 1.8821 29.5197 2.34704 29.7124C2.81199 29.9052 3.31019 30.0024 3.81264 29.9983H115.171C115.674 30.0044 116.174 29.9087 116.641 29.7168C117.107 29.525 117.532 29.2409 117.888 28.8811C118.245 28.5213 118.527 28.0932 118.719 27.6216C118.91 27.1501 119.006 26.6447 119.002 26.1351V3.86535C119.006 3.35651 118.911 2.85187 118.72 2.38089C118.53 1.9099 118.249 1.48201 117.893 1.1222C117.537 0.762381 117.114 0.477847 116.649 0.285212C116.183 0.092576 115.685 -0.00430556 115.182 0.00022666ZM0.494274 26.1351V3.86535C0.494274 2.9739 0.844279 2.11896 1.46729 1.48861C2.0903 0.858258 2.93529 0.504129 3.81636 0.504129H40.1616L40.2604 0.655109C42.9113 4.995 44.2445 10.0268 44.0946 15.1264C43.9447 20.2259 42.3184 25.1687 39.4173 29.3416L39.3185 29.4925H3.81636C2.93593 29.4925 2.09152 29.1389 1.46861 28.5094C0.845707 27.8799 0.495263 27.0259 0.494274 26.1351ZM118.504 26.1351C118.504 27.0266 118.154 27.8815 117.531 28.5118C116.908 29.1422 116.063 29.4963 115.182 29.4963H40.0105C42.9074 25.2616 44.5249 20.266 44.666 15.1178C44.8071 9.96962 43.4657 4.89099 40.8051 0.500357H115.13C115.566 0.500109 115.999 0.58699 116.402 0.756032C116.806 0.925074 117.172 1.17296 117.481 1.4855C117.79 1.79804 118.035 2.16911 118.201 2.57747C118.368 2.98584 118.454 3.42347 118.453 3.86535V26.1351H118.504Z" fill="white"/>
<path d="M59.6968 9.28149C59.0887 9.28397 58.4897 9.43033 57.9475 9.70887C57.4053 9.98741 56.9351 10.3904 56.5743 10.8857C56.4521 10.3918 56.1592 9.95856 55.7486 9.6643C55.3381 9.37004 54.8369 9.23425 54.3359 9.28149C53.7955 9.2828 53.262 9.40475 52.7736 9.63865C52.2851 9.87256 51.8536 10.2126 51.51 10.6347L51.6089 9.78161C51.6159 9.71127 51.5988 9.64063 51.5604 9.58157C51.5367 9.55128 51.5067 9.52663 51.4725 9.50935C51.4383 9.49206 51.4008 9.48257 51.3627 9.48154H50.0719C50.0131 9.47569 49.9545 9.49335 49.9084 9.53075C49.8624 9.56814 49.8327 9.6223 49.8257 9.68159C49.7249 10.5346 49.5776 11.4386 49.4284 12.2917L48.2383 18.7084C48.2308 18.7788 48.248 18.8496 48.2868 18.9084C48.3105 18.9393 48.3408 18.9645 48.3753 18.9821C48.4098 18.9997 48.4477 19.0094 48.4864 19.0104H49.9786C50.0775 19.0104 50.2267 18.9084 50.2267 18.8084L51.0698 14.245C51.4168 12.3898 52.7486 11.0367 53.698 11.0367C54.4441 11.0367 54.7892 11.4386 54.7892 12.3407C54.7803 12.6937 54.7473 13.0455 54.6903 13.3938L53.698 18.7122C53.6905 18.7825 53.7077 18.8533 53.7465 18.9122C53.7702 18.9431 53.8005 18.9683 53.835 18.9859C53.8695 19.0035 53.9074 19.0132 53.9461 19.0141H55.4383C55.5372 19.0141 55.6864 18.9122 55.6864 18.8122L56.5295 14.1469C56.8765 12.2407 58.1169 11.0367 59.1074 11.0367C59.902 11.0367 60.1985 11.4386 60.1985 12.3407C60.1985 12.7139 60.1483 13.0853 60.0493 13.4448L59.0589 18.6612C59.0502 18.7272 59.0654 18.7942 59.1018 18.8497C59.1381 18.9052 59.1931 18.9455 59.2566 18.9632H60.7936C60.8924 18.9632 61.0417 18.8631 61.0417 18.7631L62.034 13.3938C62.1344 12.8652 62.1837 12.328 62.1814 11.7897C62.1329 10.0911 60.8924 9.28149 59.7024 9.28149H59.6968ZM68.0831 9.28149C65.2069 9.28149 62.8771 11.9897 62.8771 15.3C62.8771 17.6591 64.4141 19.2633 66.645 19.2633C69.8682 19.2633 71.851 16.153 71.851 13.2938C71.851 11.2877 70.661 9.28149 68.0831 9.28149ZM69.719 13.2938C69.719 15.2509 68.4301 17.5081 66.7942 17.5081C65.703 17.5081 64.9588 16.606 64.9588 15.2C64.9588 13.1938 66.1488 10.9857 67.8836 10.9857C69.6183 10.9857 69.719 13.0428 69.719 13.2938ZM78.4448 9.28149C77.8711 9.28458 77.3047 9.41142 76.7833 9.65355C76.2619 9.89568 75.7976 10.2475 75.4212 10.6856L75.5704 9.78161C75.5777 9.71099 75.5599 9.64006 75.5201 9.58157C75.4963 9.55128 75.4663 9.52663 75.4322 9.50935C75.398 9.49206 75.3605 9.48257 75.3223 9.48154H73.9327C73.8737 9.47566 73.8149 9.49327 73.7685 9.53062C73.7222 9.56798 73.6921 9.62214 73.6846 9.68159C73.5893 10.5601 73.4404 11.4318 73.2388 12.2917L72.0488 18.7084C72.0411 18.779 72.059 18.8501 72.0991 18.9084C72.1223 18.9395 72.1521 18.9648 72.1864 18.9824C72.2206 19.0001 72.2584 19.0096 72.2968 19.0104H73.8338C73.9327 19.0104 74.0819 18.9084 74.0819 18.8084L74.8747 14.3941C75.272 12.186 76.7605 11.0329 77.7024 11.0329C78.4952 11.0329 78.8421 11.4349 78.8421 12.337C78.8333 12.7068 78.8003 13.0756 78.7433 13.441L77.7509 18.6574C77.7435 18.7287 77.7614 18.8002 77.8013 18.8594C77.8249 18.8899 77.8548 18.9147 77.889 18.932C77.9232 18.9493 77.9608 18.9586 77.999 18.9594H79.536C79.6349 18.9594 79.7841 18.8594 79.7841 18.7593L80.7634 13.4901C80.8623 12.9881 80.9108 12.4861 80.9611 11.9803C80.9108 9.97412 79.6218 9.27205 78.4318 9.27205L78.4448 9.28149ZM88.2992 17.0476C88.2992 16.9476 88.2507 16.8966 88.1499 16.8475C88.1135 16.8221 88.0702 16.8084 88.0259 16.8084C87.9816 16.8084 87.9383 16.8221 87.9019 16.8475C87.2064 17.2444 86.421 17.4518 85.6225 17.4496C85.255 17.4734 84.8887 17.3858 84.5707 17.1978C84.2527 17.0099 83.9974 16.7302 83.8374 16.3946C83.6983 15.9576 83.6309 15.5005 83.6378 15.0414C87.6557 15.0414 89.6384 14.0374 89.6384 11.8331C89.6384 10.278 88.4969 9.22487 86.7622 9.22487C83.7385 9.22487 81.6065 12.4332 81.6065 15.2943C81.6065 17.7025 82.9943 19.2085 85.2755 19.2085C86.339 19.208 87.389 18.9682 88.3495 18.5065C88.3947 18.4826 88.4325 18.4465 88.4585 18.4022C88.4845 18.3578 88.4978 18.307 88.4969 18.2554L88.2992 17.0476ZM83.9866 13.3353C84.3821 12.1313 85.324 10.9763 86.5644 10.9763C87.2583 10.9763 87.7041 11.3292 87.7041 11.8803C87.7041 12.2313 87.6053 12.6823 86.7137 12.9843C85.8342 13.272 84.9093 13.391 83.9866 13.3353ZM98.6124 9.57213C98.558 9.51934 98.489 9.48447 98.4147 9.4721H96.7788C96.7276 9.47113 96.6772 9.48478 96.6333 9.51148C96.5894 9.53819 96.5539 9.57687 96.5307 9.62309L94.2495 14.6394C94.009 15.1125 93.7935 15.5983 93.6041 16.0945C93.5362 15.5538 93.4372 15.0175 93.3075 14.4885L92.414 9.62309C92.407 9.56365 92.3773 9.50932 92.3314 9.47162C92.2854 9.43392 92.2267 9.41582 92.1678 9.42115H90.5804C90.542 9.42187 90.5042 9.43142 90.47 9.44907C90.4357 9.46673 90.4059 9.49203 90.3827 9.52306C90.3426 9.58141 90.3247 9.65246 90.3324 9.72311L92.1174 18.2007C92.1678 18.3517 92.1174 18.3517 92.1174 18.4517C91.7118 19.2381 91.1383 19.9234 90.4387 20.4579C89.9554 20.8209 89.4209 21.1085 88.8532 21.3109C88.7524 21.3619 88.6536 21.5129 88.7039 21.6129L89.0994 22.9679C89.1209 23.0196 89.155 23.065 89.1983 23.0999C89.2416 23.1348 89.2929 23.1583 89.3475 23.168H89.3978C90.4267 22.875 91.365 22.3224 92.1249 21.5619C93.3653 20.3088 94.2569 18.7537 95.2493 16.7456L98.6198 9.8741C98.6702 9.72312 98.6702 9.62309 98.6198 9.57213H98.6124ZM102.934 8.67002C102.649 11.3776 101.981 14.0298 100.951 16.5456C102.339 14.9395 103.578 12.2313 104.62 8.77004L103.182 8.51904H103.132C103.083 8.46808 102.983 8.56999 102.934 8.67002ZM98.8679 20.1069L98.7187 20.2578C98.6768 20.321 98.6595 20.3977 98.6702 20.473C98.6807 20.5087 98.6999 20.5412 98.7259 20.5676C98.752 20.5939 98.7841 20.6133 98.8194 20.624L103.529 21.979H103.628L98.8679 20.1069ZM105.956 8.01702C105.905 8.01627 105.855 8.03001 105.811 8.05669C105.767 8.08337 105.731 8.12193 105.708 8.168C104.954 10.7411 103.871 13.2034 102.487 15.4925C104.804 13.6332 106.798 11.3948 108.387 8.87007L106.006 7.96795C106.006 7.97456 106.005 7.9811 106.003 7.98718C106 7.99326 105.996 7.99876 105.992 8.00334C105.987 8.00792 105.981 8.01149 105.975 8.01384C105.969 8.0162 105.963 8.01728 105.956 8.01702ZM109.825 8.11705C106.303 13.8864 102.487 16.5965 100.498 17.7421C100.438 17.7994 100.388 17.8671 100.351 17.9422C100.351 17.9812 100.36 18.0196 100.377 18.0546C100.395 18.0896 100.419 18.1202 100.45 18.1441L104.514 21.6053C104.615 21.6544 104.714 21.7054 104.813 21.6544C110.763 18.7952 113.885 13.2278 114.728 11.5707C114.748 11.5089 114.749 11.4426 114.731 11.3803C114.713 11.3179 114.678 11.2621 114.63 11.2197L110.168 8.01136C110.148 7.99271 110.124 7.97866 110.099 7.97018C110.073 7.96171 110.046 7.95901 110.019 7.96229C109.968 8.01136 109.869 8.06232 109.821 8.11139L109.825 8.11705ZM99.6066 19.1481C99.5562 19.1991 99.5077 19.2991 99.5562 19.3501C99.5562 19.4501 99.6066 19.4992 99.7054 19.5501L103.078 21.2052L100.004 18.7971L99.6066 19.1481Z" fill="#FFBF0E"/>
</g>
<defs>
<clipPath id="clip0_75_10197">
<rect width="119" height="30" fill="white"/>
</clipPath>
</defs>
</svg>
